<?xml version="1.0" encoding="UTF-8"?>
<svg id="Layer_1" xmlns="http://www.w3.org/2000/svg" version="1.1" viewBox="0 0 100 50">
  <!-- Generator: Adobe Illustrator 30.7.0, SVG Export Plug-In . SVG Version: 2.1.4 Build 114)  -->
  <defs>
    <style>
      .st0 {
        fill: #fff;
      }
    </style>
  </defs>
  <g>
    <path d="M139.54,19.45l-1.85-1.36c-.44-.32-1.04-.29-1.44.08l-2.75,2.51,6.04-1.23Z"/>
    <path d="M140.11,25.54l-5.34,4.21c-.22.66,5.54,3.73,5.99,3.27.77-.92,4.68-4.55,5.45-5.47"/>
    <path d="M157.59,29.74l-6.47,9.52c-.26.38-.84.26-.94-.18.03-.43-1.87-5.64-1.93-6.71-.02-.11.88-.38.99-.43,1.08-.46,3.84-1.99,4.14-3.3.06-.27.33-.43.6-.37l3.28.68c.36.08.53.49.32.8Z"/>
    <path class="st0" d="M144.16,28.6l-5.74-1.93s1.49,3.1-.9,4.35c4.83-1.72,4.53-2.3,6.64-2.41Z"/>
    <path d="M160.19,17.34l-1.38-6.73c-.65-.53-8.43,2.94-8.19,3.56.58,1.12,1.16,2.25,1.74,3.37"/>
    <path class="st0" d="M154.69,12.64s1.03,3.24,4.88,4.36l-6.6.54s2.4-2.23,1.72-4.9Z"/>
    <path class="st0" d="M151,30.62l4.39,2.12s-3.43.5-4.77,3.93c0,0,1.44-3.83.38-6.05Z"/>
    <path d="M192.61,18.2c-4.14-2.73-24.15-2.51-46.36-.74-2.98.24-7.9,1.63-10.38,2.37-.93.28-1.93.06-2.66-.57-1.02-.88-3.6-6.12-4.73-7.5-.25-.31-.69-.78-1.39-1.25.21,1.26.38,3.08.04,5.21-.49,3.14-1.73,4.77-.92,6.19.29.51,1.63,1.08,3.25,1.4.19.04.19.3,0,.34-1.62.32-2.96.88-3.25,1.4-.81,1.43.43,3.05.92,6.19.34,2.13.17,3.95-.04,5.21.7-.47,1.14-.95,1.39-1.25,1.13-1.38,3.02-6.03,3.74-6.68.86-.79,1.92-.79,3.9-.88,3.32-.15,6.85.51,14.6,3.7,3.39,1.4,3.05,1.41,4.68,2.02,10.1,3.82,20.05,2.18,25.2,1.27,3.63-.64,6.15-1.42,9.44-2.43,8.99-2.77,17.75-6.78,17.39-7.68-.1-.24-1.17-.65-5.87.23-1.88.35-3.49.52-4.67.61.82-.62,2.12-1.44,3.89-1.93,2.85-.8,5.26-.3,6.39.01.35.22.76.21,1.02,0,.25-.21.25-.53.25-.57.01-.37-1.24-1.33-1.75-1.65-2.06-1.31-14.09-3-14.09-3Z"/>
    <path class="st0" d="M135.89,22.71c.19-.29.33-.6.42-.87.46-1.44,1.42-2.01,1.42-2.01,0,0-1.17,1.58-1.19,3.64-.02,2.13,1.19,3.64,1.19,3.64,0,0-.97-.58-1.43-2.04-.1-.27-.23-.6-.44-.91-.36-.53-3.11-.66-3.29-.7.2-.06,2.95-.22,3.31-.76Z"/>
    <path class="st0" d="M145.6,21.9c.36-.39.63-.82.83-1.19,1.03-2.05,2.59-2.67,2.59-2.67,0,0-2.12,2.08-2.63,5.16-.52,3.17.94,5.71.94,5.71,0,0-1.31-1.09-1.66-3.37-.08-.43-.21-.95-.44-1.46-.42-.88-7.45-2.18-7.72-2.28.31-.04,7.41.83,8.09.1Z"/>
    <path class="st0" d="M155.36,23.61c.44-.5.76-1.05,1.02-1.53,1.23-2.62,3.19-3.45,3.19-3.45,0,0-2.61,2.7-3.15,6.59-.56,4.02,1.36,7.18,1.36,7.18,0,0-1.69-1.33-2.2-4.2-.12-.54-.29-1.2-.61-1.83-.56-1.1-7.41-2.5-7.75-2.62.39-.05,7.32.81,8.15-.14Z"/>
    <path class="st0" d="M166.88,23.89c.46-.7.78-1.44,1.02-2.08,1.12-3.47,3.42-4.84,3.42-4.84,0,0-2.82,3.79-2.87,8.75-.05,5.12,2.87,8.75,2.87,8.75,0,0-2.33-1.39-3.44-4.89-.23-.66-.56-1.45-1.05-2.18-.87-1.28-9.03-1.59-9.48-1.68.48-.13,8.65-.52,9.53-1.84Z"/>
    <path class="st0" d="M178.56,23.67c.37-.55.62-1.13.8-1.64.88-2.73,2.69-3.8,2.69-3.8,0,0-2.22,2.98-2.26,6.89-.04,4.03,2.26,6.89,2.26,6.89,0,0-1.83-1.09-2.71-3.85-.18-.52-.44-1.14-.83-1.72-.69-1.01-8.95-1.25-9.3-1.32.38-.1,8.65-.41,9.34-1.44Z"/>
    <path class="st0" d="M189.65,27.65c0,2.35,1.39,3.2,1.39,3.2,0,0-1.01-1.33-.99-3.2.02-1.81.99-3.2.99-3.2,0,0-1.39.84-1.39,3.2Z"/>
    <path class="st0" d="M187.37,27.65c0,2.35,1.39,3.2,1.39,3.2,0,0-1.01-1.33-.99-3.2.02-1.81.99-3.2.99-3.2,0,0-1.39.84-1.39,3.2Z"/>
    <path class="st0" d="M184.19,26.47c0,3.88,1.47,5.28,1.47,5.28,0,0-1.06-2.19-1.05-5.28.02-2.99,1.05-5.28,1.05-5.28,0,0-1.47,1.39-1.47,5.28Z"/>
    <circle class="st0" cx="191.5" cy="21.73" r="2.24"/>
    <circle cx="191.5" cy="21.73" r="1.69"/>
    <path class="st0" d="M132.8,19.65s-2.6.74-2.39,2.98c0,0-.22-3.51-1.66-4.32,0,0,1.51.81,4.05,1.34Z"/>
    <path class="st0" d="M132.8,27.29s-2.6-.74-2.39-2.98c0,0-.22,3.51-1.66,4.32,0,0,1.51-.81,4.05-1.34Z"/>
  </g>
  <g>
    <path d="M89.5,21.2c-2.06-1.31-14.09-3-14.09-3-3.26-2.15-16.34-2.47-32.58-1.65l-1.22-5.94c-.65-.53-8.43,2.94-8.19,3.56.49.95.98,1.91,1.47,2.86-1.92.13-3.88.28-5.84.43-2.02.16-4.92.85-7.36,1.51l-1.2-.88c-.44-.32-1.04-.29-1.44.08l-1.85,1.69c-.43-.1-.84-.3-1.18-.6-1.02-.88-3.6-6.12-4.73-7.5-.25-.31-.69-.78-1.39-1.25.21,1.26.38,3.08.04,5.21-.49,3.14-1.73,4.77-.92,6.19.29.51,1.63,1.08,3.25,1.4.19.04.19.3,0,.34-1.62.32-2.96.88-3.25,1.4-.81,1.43.43,3.05.92,6.19.34,2.13.17,3.95-.04,5.21.7-.47,1.14-.95,1.39-1.25,1.13-1.38,3.02-6.03,3.74-6.68.86-.79,1.92-.79,3.9-.88.45-.02.89-.02,1.36-.01l-2.72,2.14c-.22.66,5.54,3.73,5.99,3.27.52-.63,2.52-2.52,3.97-3.95,1.65.54,3.56,1.25,5.83,2.18-.52.3-.99.53-1.32.67-.11.05-1.01.33-.99.43.07,1.07,1.96,6.29,1.93,6.71.09.45.68.56.94.18l4.07-5.99c.07.03.13.05.21.08,10.1,3.82,20.05,2.18,25.2,1.27,3.63-.64,6.15-1.42,9.44-2.43,8.99-2.77,17.75-6.78,17.39-7.68-.1-.24-1.17-.65-5.87.23-1.88.35-3.49.52-4.67.61.82-.62,2.12-1.44,3.89-1.93,2.85-.8,5.26-.3,6.39.01.35.22.76.21,1.02,0,.25-.21.25-.53.25-.57.01-.37-1.24-1.33-1.75-1.65ZM37.49,12.64s.85,2.65,3.87,3.99c-1.65.09-3.34.19-5.05.3.66-.84,1.64-2.46,1.18-4.29ZM11.55,18.31s1.51.81,4.05,1.34c0,0-2.6.74-2.39,2.98,0,0-.22-3.51-1.66-4.32ZM11.55,28.64c1.44-.81,1.66-4.32,1.66-4.32-.2,2.25,2.39,2.98,2.39,2.98-2.54.53-4.05,1.34-4.05,1.34ZM19.11,25.08c-.1-.27-.23-.6-.44-.91-.36-.53-3.11-.66-3.29-.7.2-.06,2.95-.22,3.31-.76.19-.29.33-.6.42-.87.46-1.44,1.42-2.01,1.42-2.01,0,0-1.17,1.58-1.19,3.64-.02,2.13,1.19,3.64,1.19,3.64,0,0-.97-.58-1.43-2.04ZM20.32,31.01c1.5-.78,1.47-2.29,1.24-3.31,1.33.13,2.82.43,4.66.97-1.39.22-1.72.85-5.9,2.34ZM28.48,25.54c-.08-.43-.21-.95-.44-1.46-.42-.88-7.45-2.18-7.72-2.28.31-.04,7.41.83,8.09.1.36-.39.63-.82.83-1.19,1.03-2.05,2.59-2.67,2.59-2.67,0,0-2.12,2.08-2.63,5.16-.52,3.17.94,5.71.94,5.71,0,0-1.31-1.09-1.66-3.37ZM33.41,36.67s1.09-2.89.67-5.11c2.08.87,2.49,1.11,3.2,1.42-1.11.39-2.97,1.37-3.88,3.69ZM38.36,28.2c-.12-.54-.29-1.2-.61-1.83-.56-1.1-7.41-2.5-7.75-2.62.39-.05,7.32.81,8.15-.14.44-.5.76-1.05,1.02-1.53,1.23-2.62,3.19-3.45,3.19-3.45,0,0-2.61,2.7-3.15,6.59-.56,4.02,1.36,7.18,1.36,7.18,0,0-1.69-1.33-2.2-4.2ZM50.68,29.59c-.23-.66-.56-1.45-1.05-2.18-.87-1.28-9.03-1.59-9.48-1.68.48-.13,8.65-.52,9.53-1.84.46-.7.78-1.44,1.02-2.08,1.12-3.47,3.42-4.84,3.42-4.84,0,0-2.82,3.79-2.87,8.75-.05,5.12,2.87,8.75,2.87,8.75,0,0-2.33-1.39-3.44-4.89ZM64.85,32s-1.83-1.09-2.71-3.85c-.18-.52-.44-1.14-.83-1.72-.69-1.01-8.95-1.25-9.3-1.32.38-.1,8.65-.41,9.34-1.44.37-.55.62-1.13.8-1.64.88-2.73,2.69-3.8,2.69-3.8,0,0-2.22,2.98-2.26,6.89-.04,4.03,2.26,6.89,2.26,6.89ZM68.46,31.75s-1.47-1.4-1.47-5.28c0-3.89,1.47-5.28,1.47-5.28,0,0-1.03,2.29-1.05,5.28-.02,3.09,1.05,5.28,1.05,5.28ZM71.56,30.85s-1.39-.85-1.39-3.2c0-2.36,1.39-3.2,1.39-3.2,0,0-.97,1.39-.99,3.2-.02,1.87.99,3.2.99,3.2ZM73.84,30.85s-1.39-.85-1.39-3.2c0-2.36,1.39-3.2,1.39-3.2,0,0-.97,1.39-.99,3.2-.02,1.87.99,3.2.99,3.2ZM74.3,23.97c-1.24,0-2.24-1-2.24-2.24s1-2.24,2.24-2.24,2.24,1,2.24,2.24-1,2.24-2.24,2.24Z"/>
    <path d="M74.3,20.03c-.94,0-1.69.76-1.69,1.69s.76,1.69,1.69,1.69,1.69-.76,1.69-1.69-.76-1.69-1.69-1.69Z"/>
  </g>
</svg>